<?xml version="1.0" standalone="no"?>
<!DOCTYPE svg PUBLIC "-//W3C//DTD SVG 1.1//EN" "http://www.w3.org/Graphics/SVG/1.1/DTD/svg11.dtd" >
<svg xmlns="http://www.w3.org/2000/svg">
<metadata></metadata>
<defs>
<font id="futurist_fixed-widthregular" horiz-adv-x="1000" >
<font-face units-per-em="1000" ascent="800" descent="-200" />
<missing-glyph horiz-adv-x="500" />
<glyph unicode="&#xd;" />
<glyph unicode=" " />
<glyph unicode="!" d="M533 182h-85v558h85v-558zM502 107q22 -4 34 -20t12 -37q0 -23 -13.5 -41.5t-35.5 -18.5q-32 0 -50 17t-18 42q0 39 37 55q18 6 34 3z" />
<glyph unicode="&#x22;" d="M604 755l-18 -329h-62l-18 329h98zM443 755l-18 -329h-62l-18 329h98z" />
<glyph unicode="#" d="M750 473l-17 -78h-119l-34 -133h125l-18 -78h-124l-45 -186h-46l48 186h-113l-46 -186h-45l45 186h-106l17 78h109l32 133h-115l15 78h120l45 191h45l-45 -191h112l44 191h45l-47 -191h118zM568 393h-110l-33 -133h112z" />
<glyph unicode="$" d="M740 150q-18 -68 -75 -117l-85 -39v-109h-41v101h-68v-101h-39v107q-60 6 -107 47t-65 100l66 41q14 -43 40 -73.5t66 -40.5v280q-74 20 -116 66.5t-42 118.5q0 71 43 121t115 67v60h39v-54h68v54h41v-58q45 -9 85 -39.5t65 -72.5l-69 -45q-10 29 -31.5 52.5t-49.5 31.5 v-259q75 -14 119 -70t44 -130q0 -19 -3 -39zM432 422v219q-35 -18 -54.5 -48.5t-19.5 -65.5q0 -31 13.5 -55t43.5 -42zM539 395v257h-68v-240zM539 49v262l-68 17v-279h68zM628 266q-11 9 -19 14t-29 15v-236q36 14 59 50.5t23 77.5q0 49 -34 79z" />
<glyph unicode="%" d="M442 566q-6 -71 -57 -114t-118 -43q-31 0 -57 8.5t-52 27.5q-65 55 -65 135q0 73 54.5 121.5t126.5 48.5q7 0 15.5 -1t12.5 -1q60 -17 100.5 -61t40.5 -102q0 -13 -1 -19zM736 766l-446 -782l-4 -15h-55l450 797h55zM896 143q0 -70 -55 -113.5t-128 -43.5 q-51 0 -90.5 23.5t-57.5 72.5q-19 40 -19 74q0 73 53 121t128 48q16 0 33 -3q58 -19 97.5 -62t39.5 -101q0 -11 -1 -16zM371 557q3 12 3 27q0 13 -3 27q-11 32 -43.5 51.5t-68.5 19.5q-46 -10 -71.5 -41t-25.5 -70q0 -58 31.5 -75t46 -20t28.5 -3q42 0 72.5 22t30.5 62z M826 170q-5 37 -33 61.5t-65 24.5q-6 1 -16 1q-43 0 -68.5 -31.5t-25.5 -74.5q0 -40 21.5 -69t49 -32t34.5 -3q43 0 74 30t31 73q0 6 -2 20z" />
<glyph unicode="&#x26;" d="M835 0h-109l-75 92q-45 -48 -105 -75t-125 -27q-44 0 -82 12.5t-73 40.5q-32 29 -48.5 67t-16.5 81q0 85 41 127t73.5 62.5t63.5 33.5q-41 42 -62.5 80.5t-21.5 83.5q0 18 1 26t13 41.5t56 60t99 26.5q72 0 123 -41.5t51 -109.5q0 -11 -4.5 -42.5t-46.5 -72.5t-104 -66 l174 -205q23 25 48 56t47 63l59 -58q-20 -36 -46.5 -64.5t-60.5 -48.5zM543 619q-11 18 -21 24.5t-21.5 10t-19.5 4.5q-45 0 -72.5 -21t-27.5 -60q0 -6 1.5 -18.5t9.5 -27.5l54 -84q46 23 76 56t30 74q0 19 -9 42zM601 137l-178 217q-60 -32 -96.5 -72t-36.5 -92 q0 -19 6 -42q15 -46 50.5 -68.5t83.5 -22.5q23 0 47.5 7t49 21t74.5 52z" />
<glyph unicode="'" d="M541 755l-18 -329h-62l-18 329h98z" />
<glyph unicode="(" d="M574 748q-61 -104 -90.5 -223.5t-29.5 -249.5q0 -150 33.5 -266.5t84.5 -203.5l-57 -26q-19 33 -40.5 80t-39.5 92l-37 170q-9 77 -9 154q0 88 13 190q33 159 111 305z" />
<glyph unicode=")" d="M527 -57q-15 -41 -33 -79t-46 -85l-58 24q60 101 89.5 219.5t29.5 242.5q0 42 -1.5 65.5t-8.5 73.5l-24 137q-15 57 -35 106t-50 99l58 27q66 -102 97.5 -224t31.5 -256q0 -90 -12.5 -176t-37.5 -174z" />
<glyph unicode="*" d="M650 494l-26 -49l-125 78l6 -140h-54l5 140l-124 -76l-26 47l131 67l-131 68l30 47l122 -80l-4 142h51l-4 -140l123 76l26 -45l-128 -70z" />
<glyph unicode="+" d="M747 260h-193v-242h-64v242h-198v66h198v238h66v-238h191v-66z" />
<glyph unicode="," d="M591 96l-127 -268l-60 24l101 273z" />
<glyph unicode="-" d="M630 197h-247v78h247v-78z" />
<glyph unicode="." d="M340 105q21 -7 32.5 -24t11.5 -37q0 -24 -14.5 -40t-42.5 -16q-29 0 -45.5 17.5t-16.5 42.5q0 38 36 56q7 2 18 3t17 0z" />
<glyph unicode="/" d="M683 758l-323 -770h-73l325 770h71z" />
<glyph unicode="0" d="M704 390q0 -163 -55 -281.5t-180 -118.5q-127 0 -183.5 100.5t-56.5 284.5q0 166 58 275.5t182 109.5q118 0 176.5 -112t58.5 -258zM612 388q0 99 -27.5 192.5t-115.5 93.5q-71 0 -111.5 -83t-40.5 -220q0 -146 40 -229.5t112 -83.5q71 0 107 85t36 245z" />
<glyph unicode="1" d="M586 0h-91v664l-149 2l47 74h193v-740z" />
<glyph unicode="2" d="M736 629q14 -40 14 -83q0 -69 -71 -198.5t-246 -277.5h294v-70h-445v10q95 94 178 193.5t129.5 170.5t56.5 102t10 62q0 32 -10.5 57t-37.5 50q-40 25 -88 25q-49 0 -88.5 -28t-46.5 -60t-9.5 -46t-2.5 -30h-91q0 82 35.5 145.5t83.5 77.5t69.5 17.5t43.5 3.5 q72 0 130.5 -30t91.5 -91z" />
<glyph unicode="3" d="M717 488q-17 -41 -45 -67.5t-72 -37.5q67 -10 101 -59t34 -117q0 -45 -16.5 -89t-45.5 -73q-33 -29 -79.5 -43.5t-97.5 -14.5q-82 0 -145 34q-85 62 -85 170h91q-1 -6 -1 -16q0 -53 40 -82.5t97 -29.5q46 0 84.5 20t51.5 47.5t16 42.5t3 33q0 47 -30 89 q-25 30 -66.5 41.5t-91.5 11.5v70q10 -1 17.5 -1.5t13.5 -0.5q59 0 99.5 28t44 59.5t3.5 42.5q0 53 -31.5 90t-60.5 40t-42 3q-51 0 -89 -25q-48 -38 -48 -99h-89q6 72 46.5 124t93 62.5t88.5 10.5h18q12 -2 17 -2q79 0 133 -60t54 -138q0 -35 -11 -64z" />
<glyph unicode="4" d="M701 164h-85v-164h-79v164h-317v6l359 578h39v-516h83v-68zM543 227v359l-221 -359h221z" />
<glyph unicode="5" d="M721 344q8 -40 8 -78q0 -101 -48.5 -177t-145.5 -95q-31 -4 -43 -4.5t-19 -0.5q-56 0 -102.5 17t-72.5 44.5t-38 45.5l56 64h8q22 -45 62 -70t87 -25q68 0 122 48q45 61 45 137q0 45 -19 84t-49 58t-54.5 25t-48.5 6q-39 0 -77 -13t-78 -37l-10 4l80 357h315v-76h-249 l-49 -187q45 29 99 29q71 0 134 -45t87 -111z" />
<glyph unicode="6" d="M709 309q17 -45 17 -90q0 -93 -59 -162t-152 -69q-17 -1 -25 -1q-49 0 -91.5 16.5t-72 50.5t-44 74.5t-14.5 81.5q0 48 16 96t46 98l268 360l70 -43l-259 -332q45 42 110 42q59 0 113.5 -34.5t76.5 -87.5zM618 129q20 40 20 82q0 44 -22 80.5t-64 54.5q-12 4 -30 6t-34 2 q-61 0 -97 -42.5t-36 -102.5q0 -33 11.5 -62.5t36.5 -52.5q39 -33 92 -33q38 0 71 17.5t52 50.5z" />
<glyph unicode="7" d="M748 734l-4 -23l-379 -736l-71 37l339 646h-356v76h471z" />
<glyph unicode="8" d="M722 582q1 -7 1 -21q0 -67 -44 -122q-10 -6 -37 -22.5t-42 -23.5q67 -13 102.5 -65.5t35.5 -120.5q0 -74 -35.5 -124t-87 -73t-107.5 -23q-49 0 -93.5 18.5t-73.5 50.5t-43 71.5t-14 78.5q0 67 35.5 119t103.5 70q-60 13 -92 60.5t-32 108.5q0 31 9 61q22 57 67.5 88 t80.5 35.5t42.5 4.5h11.5q83 0 143 -45.5t69 -125.5zM626 492q16 29 16 61q0 49 -36.5 86.5t-90.5 37.5q-10 0 -40 -4.5t-62 -37.5t-32 -86q9 -52 43.5 -87t84.5 -35q14 0 28 3q60 7 89 62zM624 113q25 43 25 94q0 55 -31.5 95t-90.5 46q-67 0 -111 -43t-44 -104 q0 -15 1 -23t11 -38.5t47 -57.5t82 -27q36 0 58 12.5t32 22.5t21 23z" />
<glyph unicode="9" d="M742 500q-7 -40 -16.5 -73.5t-73 -147.5t-194.5 -295l-75 39l223 325q-51 -41 -114 -41q-57 0 -107.5 31.5t-78.5 83.5q-23 52 -23 108q0 71 36.5 127.5t107.5 82.5q27 7 49 10.5t45 3.5q96 0 159 -67t63 -161v-16q-1 -7 -1 -10zM637 453q15 35 15 71q0 61 -40.5 105.5 t-105.5 44.5q-62 0 -98.5 -45t-36.5 -105q0 -50 27.5 -90t61.5 -47t50 -7q84 0 127 73z" />
<glyph unicode=":" d="M454 301q-14 -6 -29 -6q-25 0 -43.5 15.5t-18.5 38.5q0 9 3 18q1 16 14.5 28.5t23 15t18.5 2.5q28 0 45.5 -18.5t17.5 -43.5q0 -33 -31 -50zM474 14q-21 -25 -51 -25q-10 0 -20 2.5t-16 4.5q-25 18 -25 48q0 22 12 38.5t26.5 20t24.5 3.5q28 0 42.5 -17t14.5 -43 q0 -16 -8 -32z" />
<glyph unicode=";" d="M419 412q21 -6 32 -22.5t11 -36.5q0 -24 -13.5 -41t-39.5 -19q-32 0 -48.5 18t-16.5 47q0 11 3 23q10 16 29 23.5t43 7.5zM479 94l-130 -266l-56 20l96 271z" />
<glyph unicode="&#x3c;" d="M716 14l-512 206l-1 71l512 206l1 -93l-385 -148l385 -148v-94z" />
<glyph unicode="=" d="M783 299h-512l-1 86h512zM783 127h-512l-1 86h512z" />
<glyph unicode="&#x3e;" d="M789 221l-512 -206l-1 93l384 148l-384 148v94l512 -206z" />
<glyph unicode="?" d="M681 652q11 -31 11 -60q0 -60 -45 -110q-43 -35 -80.5 -63t-85.5 -58q-14 -15 -21.5 -30.5t-7.5 -31.5q0 -19 12 -37q24 -25 56 -25q44 0 57 27.5t15 40.5t2 29h77q1 -6 1 -19q0 -54 -30 -95.5t-67 -47t-57 -5.5q-41 0 -73 13t-53 45q-24 41 -24 84q0 38 19 72l30 35 l167 123q23 25 23 56q0 21 -10.5 38t-32.5 26t-43 9q-47 0 -79 -35q-10 -23 -14.5 -36t-4.5 -29h-83q0 57 24.5 98t77.5 63q21 6 40 9.5t37 3.5q56 0 99.5 -21t62.5 -69zM521 104q22 -6 34 -23.5t12 -37.5q0 -23 -13 -39t-27.5 -17.5t-22.5 -1.5q-25 0 -41.5 18.5 t-16.5 42.5q0 37 33 54q22 7 37 5z" />
<glyph unicode="@" d="M869 453q0 -63 -16 -118t-48 -97t-72.5 -63t-79.5 -21q-44 0 -55 62q-29 -29 -61 -45.5t-75 -16.5q-67 0 -117.5 54.5t-50.5 130.5q0 96 57 167.5t147 71.5q39 0 71.5 -16.5t62.5 -54.5l14 62h71l-50 -258q-3 -14 -5.5 -29.5t-2.5 -26.5q0 -14 4.5 -22t17.5 -8 q36 0 72 60.5t36 131.5q0 125 -76.5 199.5t-194.5 74.5q-126 0 -212.5 -91.5t-86.5 -222.5q0 -135 92.5 -224t223.5 -89q130 0 187 48l75 -60q-63 -33 -121.5 -50.5t-148.5 -17.5q-163 0 -275.5 111.5t-112.5 281.5q0 167 110.5 280.5t271.5 113.5q68 0 127.5 -21 t110.5 -66.5t80.5 -104t29.5 -126.5zM607 372q1 8 1 22q0 50 -27.5 77.5t-76.5 27.5q-57 0 -94.5 -47.5t-37.5 -105.5q0 -47 27 -80.5t73 -33.5q62 0 94.5 39.5t40.5 100.5z" />
<glyph unicode="A" d="M831 0h-104l-95 230h-294l-95 -230h-96l325 760h24zM603 297l-123 318l-120 -318h243z" />
<glyph unicode="B" d="M687 461q-29 -51 -87 -68q67 -13 104.5 -66t37.5 -120q0 -50 -19.5 -93t-58.5 -73q-24 -15 -53 -25.5t-59 -15.5h-265v740l230 -2q80 0 137 -58t57 -133q0 -44 -24 -86zM618 566q-11 47 -49.5 72.5t-88.5 25.5h-108v-250h138q52 8 81 42t29 84q0 6 -1 14t-1 12zM598 313 q-18 12 -40 19.5t-43 7.5l-143 2v-272l161 2q54 7 85 45t31 89q0 32 -12.5 59t-38.5 48z" />
<glyph unicode="C" d="M768 33q-52 -22 -105.5 -34t-108.5 -12q-77 0 -147 25t-128 76q-118 120 -118 283q0 106 46.5 182t91 116.5t85 57t66 22.5t52 9t51.5 3q37 0 78 -6.5t82 -18.5l55 -25v-98q-93 66 -204 66q-75 0 -140 -30.5t-112 -93.5q-27 -40 -41.5 -87t-14.5 -96q0 -85 42.5 -159.5 t117 -112t151.5 -37.5q83 0 149 41l52 33v-104z" />
<glyph unicode="D" d="M661 41q-39 -19 -78 -30t-77 -11h-280v740h315q141 -14 223 -124.5t82 -252.5q0 -105 -46 -191t-139 -131zM748 418q-8 87 -67.5 154t-145.5 86h-222v-578h191q113 0 180 90t67 205q0 22 -3 43z" />
<glyph unicode="E" d="M691 0h-402v740h402v-80h-311v-219h311v-76h-313v-285h313v-80z" />
<glyph unicode="F" d="M730 363h-311v-363h-87v740h398v-78h-309v-223h309v-76z" />
<glyph unicode="G" d="M888 377q0 -105 -34 -187.5t-111 -142.5q-48 -31 -105 -46t-117 -15q-69 0 -135.5 20t-120.5 58q-68 58 -103.5 137t-35.5 169q0 24 1 37t14 87t104 161.5t216 102.5q129 0 224.5 -33.5t148.5 -126.5l-68 -59q-46 68 -112 105t-145 37q-36 0 -74 -9q-100 -32 -158 -117.5 t-58 -188.5q0 -105 53 -174t116 -98.5t134 -29.5q56 0 105 18.5t85.5 54t56 77t25.5 87.5l-219 2v74h313z" />
<glyph unicode="H" d="M798 0h-87v369h-410v-369h-87v740h87v-293h408v293h89v-740z" />
<glyph unicode="I" d="M539 0h-87v740h87v-740z" />
<glyph unicode="J" d="M615 115q-16 -51 -45.5 -84t-63 -38.5t-52.5 -5.5q-100 0 -160 72l57 62q16 -23 45 -41t56 -18q32 0 46 18t19.5 32.5t10.5 33.5v594h87v-625z" />
<glyph unicode="K" d="M813 0h-126l-337 400v-400h-89v740h89v-326l311 326h120l-329 -328z" />
<glyph unicode="L" d="M666 0h-365v740h92v-660h273v-80z" />
<glyph unicode="M" d="M930 0h-97l-81 559l-236 -579h-25l-230 581l-89 -561h-91l147 760h31l253 -615l248 615h31z" />
<glyph unicode="N" d="M831 -16h-18l-540 594v-578h-83v758h21l535 -594v576h85v-756z" />
<glyph unicode="O" d="M907 375q0 -164 -115.5 -279.5t-279.5 -115.5q-166 0 -285.5 111.5t-119.5 273.5q0 164 115.5 279.5t279.5 115.5q166 0 285.5 -111.5t119.5 -273.5zM815 377q0 127 -92 215t-221 88q-127 0 -215 -92t-88 -221q0 -127 91.5 -214.5t221.5 -87.5q127 0 215 92t88 220z" />
<glyph unicode="P" d="M732 557q1 -18 1 -26q0 -78 -50 -133.5t-131 -63.5l-155 -2v-332h-91v740l240 -2q79 -9 132.5 -57.5t53.5 -123.5zM566 650q-23 8 -49 12h-120v-254h149q43 13 68 49.5t25 80.5q0 37 -18 67t-55 45z" />
<glyph unicode="Q" d="M932 -68h-112l-93 101q-44 -28 -95 -41t-107 -13q-132 0 -242.5 69.5t-143.5 187.5q-23 63 -23 134q0 90 40 171t103 129t127 69t130 21q125 0 230 -67.5t152 -180.5q25 -78 25 -152q0 -60 -17 -114.5t-42.5 -88t-41 -49.5t-34.5 -32zM729 131q51 39 77.5 100t26.5 129 q0 92 -44.5 170t-94.5 100t-76 31t-49 13q-14 1 -23.5 1.5t-16.5 0.5q-95 0 -173 -45t-112 -121t-34 -146q0 -75 33.5 -141t98.5 -114q42 -25 83.5 -38.5t86.5 -13.5t82 7.5t75 25.5l-173 172h112z" />
<glyph unicode="R" d="M790 0h-120l-278 379v-379h-93v740l274 -2q79 0 129.5 -60t50.5 -139q0 -42 -14.5 -78t-47.5 -66q-37 -30 -81 -43h-98zM587 652q-13 5 -27.5 8.5t-26.5 3.5h-141v-248h165q48 0 74.5 33.5t26.5 81.5q0 40 -18 73t-53 48z" />
<glyph unicode="S" d="M714 611l-79 -37q-11 46 -53 74.5t-92 28.5q-37 0 -65 -14.5t-46 -47.5q-12 -27 -12 -55q0 -67 63 -101l190 -70q52 -29 79.5 -78.5t27.5 -105.5q0 -48 -19.5 -92t-58.5 -78q-70 -49 -157 -49q-78 0 -143 39q-35 26 -53.5 58.5t-33.5 84.5l81 41q0 -63 45 -105t106 -42 q24 0 47.5 7.5t46 24.5t36 46t13.5 61q0 48 -21.5 71t-34 31t-50.5 25l-128 45q-57 27 -92 73.5t-35 105.5q0 15 7.5 54.5t47.5 83.5t87.5 53.5t84.5 9.5q16 0 25 -1t46.5 -8.5t80 -43.5t59.5 -89z" />
<glyph unicode="T" d="M755 662h-213v-662h-92v662h-213v78h518v-78z" />
<glyph unicode="U" d="M802 740l-2 -504q0 -66 -37 -126.5t-96 -91.5q-82 -37 -170 -37t-158 39t-93 91.5t-29.5 79.5t-6.5 49v500h89v-500q7 -52 30 -93.5t66 -62.5q56 -24 113 -24q45 0 83 14.5t64.5 44.5t41 59.5t14.5 61.5v8v492h91z" />
<glyph unicode="V" d="M809 740l-308 -763h-27l-306 763h102l221 -607l219 607h99z" />
<glyph unicode="W" d="M983 740l-271 -763h-27l-186 584l-183 -584h-26l-284 763h100l194 -590l189 598h22l191 -598l186 590h95z" />
<glyph unicode="X" d="M792 0h-110l-186 320l-176 -320h-102l232 389l-221 351h111l162 -279l160 279h101l-212 -351z" />
<glyph unicode="Y" d="M788 740l-243 -408v-332h-90v332l-251 408h110l190 -330l181 330h103z" />
<glyph unicode="Z" d="M755 715l-415 -639h411v-76h-543v16l418 648h-357v76h486v-25z" />
<glyph unicode="[" d="M583 -205h-168v963h168v-67h-95v-830h95v-66z" />
<glyph unicode="\" d="M769 -14h-54l-439 653h63z" />
<glyph unicode="]" d="M582 -205h-167v66h93v830h-91v67h165v-963z" />
<glyph unicode="^" d="M622 543h-73l-71 100l-70 -100h-64l91 152h95z" />
<glyph unicode="_" d="M999 -49l4 -45h-1009v45h1005z" />
<glyph unicode="`" d="M572 543h-67l-146 152h120z" />
<glyph unicode="a" d="M720 0h-75v92q-25 -49 -76 -76.5t-107 -27.5q-28 0 -54 6t-66 31t-71.5 84t-31.5 126q0 56 24 109q17 33 55.5 75.5t111.5 55.5q8 0 17.5 1t14.5 1q56 0 102.5 -25t78.5 -73v86h77v-465zM626 148q15 38 15 80q0 56 -26 100t-78 65q-18 5 -44 6t-30 1q-64 -10 -103 -62.5 t-39 -115.5q0 -39 14.5 -71.5t52.5 -63t94 -30.5q47 0 85 23.5t59 67.5z" />
<glyph unicode="b" d="M711 100q-33 -52 -85 -82t-111 -30q-32 0 -59 8.5t-55 28.5q-13 12 -25.5 27t-23.5 32l-2 -84h-79v781h79v-408q27 50 74.5 77t103.5 27q88 0 136 -48.5t65 -94t17 -93.5q0 -74 -35 -141zM641 141q19 38 19 87q0 70 -39 122.5t-106 52.5q-14 0 -21 -1q-68 0 -106 -49.5 t-38 -118.5q0 -61 30 -109t69 -59t58 -11q41 0 74 22.5t60 63.5z" />
<glyph unicode="c" d="M694 29q-17 -22 -51.5 -29.5t-74.5 -7.5q-8 -1 -17 -1h-14q-74 0 -132.5 34t-88.5 100q-23 57 -23 113q0 53 20.5 100t59.5 81.5t87 47.5t104 13q65 0 122 -31v-80q-9 -2 -37.5 13.5t-43.5 19t-48 3.5q-37 0 -70 -11.5t-58 -36.5q-50 -58 -50 -124q0 -52 32 -100 q8 -10 18.5 -20t24.5 -21q46 -28 100 -28q37 0 74 14q23 18 49 33q12 4 17 2v-84z" />
<glyph unicode="d" d="M701 0h-77v92q-25 -50 -72 -76.5t-101 -26.5q-43 0 -84 16t-74 48.5t-49.5 77t-16.5 94.5q0 78 38 148q29 49 81 77t109 28q59 0 108 -31q15 -11 29 -25t32 -35v396h77v-783zM586 107q40 53 40 125q0 61 -32.5 108.5t-94.5 59.5q-18 2 -27 2q-59 0 -103.5 -38.5t-49 -74 t-5 -43.5t-0.5 -14q0 -71 37.5 -123t106.5 -52q40 0 71 11.5t57 38.5z" />
<glyph unicode="e" d="M734 109q-42 -56 -102 -88t-127 -32q-64 0 -122 31q-54 35 -82 91t-28 122q0 89 51.5 159.5t106 79t74.5 8.5q64 0 119.5 -29t81.5 -88.5t26 -139.5h-377q0 -68 43 -117t108 -49q20 0 36 4q40 6 69 28.5t57 60.5zM651 283q-11 56 -53 91.5t-99 35.5q-51 0 -89.5 -37.5 t-50.5 -89.5h292z" />
<glyph unicode="f" d="M657 396h-128v-396h-83v396h-92v63h94v209q10 55 46.5 87.5t91.5 32.5q11 0 23.5 -1.5t22 -3.5t25.5 -8v-78q-26 17 -56 17q-34 0 -56 -23q-4 -6 -8.5 -13.5t-5.5 -13.5v-205h126v-63z" />
<glyph unicode="g" d="M748 -70q-19 -79 -87.5 -123.5t-151.5 -44.5q-55 0 -103 18.5t-75.5 48.5t-37 57.5t-12.5 62.5h88q0 -53 44 -83.5t104 -30.5q47 0 87 19t57 54q4 17 7 29t4 22v119q-27 -43 -73 -65.5t-98 -22.5q-48 0 -92.5 18t-76.5 52t-48 78t-16 88q0 61 27.5 118t76.5 94 q59 40 127 40q15 0 32 -3q43 -4 80.5 -31t60.5 -67v88h76v-535zM659 150q12 38 12 76q0 58 -28 103.5t-85 65.5q-27 5 -48 5h-13q-9 -2 -41 -9t-67 -56.5t-35 -110.5q0 -37 15.5 -72.5t45.5 -61.5q45 -33 100 -33q46 0 85.5 24.5t58.5 68.5z" />
<glyph unicode="h" d="M713 0h-83v291q-6 46 -32 79.5t-67 33.5q-7 0 -38.5 -6t-58 -37.5t-31.5 -77.5v-283h-83v781h81v-388q26 38 64.5 58.5t80.5 20.5q74 0 131 -54q36 -50 36 -117v-301z" />
<glyph unicode="i" d="M520 629q-10 -2 -15 -2q-24 0 -39.5 17.5t-15.5 41.5q0 15 6.5 26.5t22.5 19.5q7 2 16.5 5t17.5 1q23 -3 36 -19t13 -36q0 -42 -42 -54zM547 0h-83v463h83v-463z" />
<glyph unicode="j" d="M537 639q-19 -11 -36 -11q-24 0 -42 16t-18 39q0 17 13 34q14 14 27 18t21 4q23 0 36.5 -16.5t13.5 -40.5q0 -23 -15 -43zM539 -225h-81v682h81v-682z" />
<glyph unicode="k" d="M762 0h-126l-239 238v-238h-81v781h83v-531l223 207h114l-238 -211z" />
<glyph unicode="l" d="M549 0h-83v781h83v-781z" />
<glyph unicode="m" d="M846 0h-85v336q0 9 -6 20t-9 17q-16 16 -33 23t-36 7q-39 0 -72 -30t-43 -74v-299h-84v313q-6 42 -31.5 66.5t-63.5 24.5q-18 0 -38 -6q-26 -11 -45 -33t-29 -51v-314h-79v465h77v-80q21 39 55 64.5t77 25.5q5 1 15 1q46 0 81.5 -28t51.5 -73q19 46 61.5 73.5t92.5 27.5 q36 0 66.5 -14.5t53.5 -45.5q18 -21 23 -51v-365z" />
<glyph unicode="n" d="M707 0h-85v324q-10 36 -39 58t-66 22q-20 0 -42 -8q-28 -15 -48.5 -37.5t-29.5 -51.5v-307h-81v465h79v-80q26 43 62 66.5t86 23.5q68 0 111.5 -41.5t52.5 -111.5v-322z" />
<glyph unicode="o" d="M750 229q0 -101 -73.5 -172.5t-176.5 -71.5q-104 0 -177.5 71.5t-73.5 173.5q0 103 71.5 176.5t174.5 73.5q105 0 180 -73t75 -178zM675 229q0 73 -49.5 124.5t-120.5 51.5q-73 0 -124.5 -49.5t-51.5 -120.5t50 -123t121 -52t123 49t52 120z" />
<glyph unicode="p" d="M760 230q0 -93 -52 -162.5t-101.5 -75t-64.5 -5.5q-37 0 -71 12t-54 28.5t-32 31t-19 29.5v-311h-83v688h81v-100q25 52 72 82t106 30h12q9 -2 56 -11t98.5 -76t51.5 -160zM547 59q58 11 91 62.5t33 115.5q0 67 -36 114t-104 47q-73 0 -119 -51t-46 -124q0 -70 44 -118 t111 -48q6 0 14 1t12 1z" />
<glyph unicode="q" d="M723 -225h-81v305q-5 -17 -18.5 -31.5t-30.5 -23.5q-19 -19 -48.5 -28t-60.5 -9q-34 0 -66.5 8t-59.5 22q-55 32 -83 86t-28 118q0 65 29.5 126t73.5 91t68 34t33.5 4h14.5q56 0 103 -26.5t74 -75.5v86h80v-686zM618 135q10 18 15 40t5 44q0 72 -42 125.5t-106 53.5 q-72 0 -115 -51.5t-43 -121.5q0 -36 12.5 -69t37.5 -58q45 -39 107 -39q43 0 76.5 19t52.5 57z" />
<glyph unicode="r" d="M673 445l-48 -66q-26 23 -54 23q-39 0 -71 -38.5t-42 -84.5v-279h-81v461h75v-113q13 46 46.5 83.5t77.5 43.5q52 0 97 -30z" />
<glyph unicode="s" d="M695 389l-66 -39q-8 28 -40.5 46.5t-69.5 18.5q-26 0 -46 -10.5t-26.5 -28t-6.5 -28.5q0 -26 30 -51l156 -55q35 -15 53 -44t18 -63q0 -44 -25.5 -82.5t-69.5 -54.5q-16 -4 -36.5 -7t-37.5 -3q-56 0 -104.5 22.5t-82.5 67.5l70 47q16 -33 48 -53t69 -20q35 0 56.5 15 t27.5 27t6 25q0 21 -14 38.5t-39 26.5q-48 14 -100.5 31t-75.5 49q-29 37 -29 79q0 65 42.5 94.5t75 35.5t76.5 6q48 -4 80.5 -26t60.5 -64z" />
<glyph unicode="t" d="M640 395h-83v-395h-81v395h-73v64h73v187h81v-187h83v-64z" />
<glyph unicode="u" d="M717 160q-9 -69 -50.5 -114.5t-86 -53t-64.5 -7.5q-58 0 -106 24.5t-74 74.5q-13 34 -16 66v315h85v-274q0 -54 30.5 -94.5t81.5 -40.5q8 1 12 1q42 5 72.5 35.5t30.5 71.5v301h85v-305z" />
<glyph unicode="v" d="M741 465l-219 -481h-21l-226 481h98l143 -342l132 342h93z" />
<glyph unicode="w" d="M890 465l-215 -479h-16l-145 354l-149 -356h-17l-203 481h93l120 -340l152 352h14l143 -354l129 342h94z" />
<glyph unicode="x" d="M741 465l-184 -229l182 -236h-105l-123 178l-124 -178h-102l181 230l-181 235h106l122 -178l125 178h103z" />
<glyph unicode="y" d="M735 465l-308 -688h-91l136 295l-199 393h100l140 -324l131 324h91z" />
<glyph unicode="z" d="M706 0h-414v23l294 377h-280v65h398v-26l-285 -373h287v-66z" />
<glyph unicode="{" d="M610 664h-83q-11 -3 -20 -12v-275q0 -28 -16.5 -53t-44.5 -43q29 -21 45 -44.5t16 -54.5v-264q1 -4 5.5 -10.5t6.5 -9.5h87v-50h-99q-33 3 -61 23q-7 10 -14 22.5t-10 24.5v291q-7 24 -23 47q-24 21 -54 27q17 6 34 16t30 23q3 7 8 22.5t5 30.5v256q0 38 26.5 60.5 t68.5 29.5h93v-57z" />
<glyph unicode="|" d="M525 -12h-82v651h82v-651z" />
<glyph unicode="}" d="M655 283q-28 -6 -54 -27q-14 -19 -23 -47v-291q-3 -14 -7 -21.5t-17 -25.5q-28 -20 -61 -23h-97v50h85q4 4 8 10.5t6 9.5v264q0 30 15.5 54t43.5 45q-53 35 -59 96v275q-16 11 -20 12h-83v57h93q39 -6 66 -29.5t27 -60.5v-256q3 -27 13 -53q28 -26 64 -39z" />
<glyph unicode="~" d="M783 284q-29 -53 -66 -87.5t-87 -34.5q-25 0 -52.5 14t-58 34t-55.5 38q-25 16 -39 16q-42 0 -92 -82l-63 45q41 59 73.5 91t79.5 32q33 0 62 -13.5t55.5 -34.5t49.5 -37.5t39 -16.5q30 0 46 22.5t40 63.5z" />
<glyph unicode="&#xa0;" />
<glyph unicode="&#xa1;" d="M492 395q-26 0 -43.5 18.5t-17.5 42.5q0 22 15 40q15 12 25.5 15.5t20.5 3.5q25 0 41 -19t16 -44q0 -24 -14.5 -40.5t-42.5 -16.5zM535 -236h-87v556h87v-556z" />
<glyph unicode="&#xa2;" d="M704 182q-12 -72 -59 -123.5t-88 -58.5t-53 -7.5t-18 -0.5q-34 0 -70 6l-49 -146h-50l56 160q-62 38 -96 104t-34 141q0 60 22.5 114.5t67.5 93.5q33 24 76 36.5t86 12.5q12 0 19.5 -0.5t31.5 -3.5l44 121h47l-47 -135q46 -25 75 -64.5t35 -89.5h-87q0 25 -12 43.5 t-35 34.5l-123 -354q21 -6 41 -6q51 0 90 35t47 87h83zM522 436q-12 4 -27 6t-27 1q-66 -11 -101.5 -65.5t-35.5 -125.5q0 -49 18.5 -95t52.5 -73z" />
<glyph unicode="&#xa3;" d="M744 84l-60 -68q-23 -13 -44.5 -18.5t-48.5 -5.5q-40 0 -73.5 10.5t-78 28.5t-62.5 18q-30 0 -54 -16t-46 -47l-53 43q23 35 51.5 61t60.5 26q6 0 10 -1q17 43 17 88q0 47 -17 98h-120v54h94l-39 94q-7 28 -7 61q0 82 43.5 146t100.5 77t87 13h15q10 -2 40.5 -6.5t75 -36 t67.5 -80.5q6 -21 14.5 -50.5t11.5 -49.5l-85 -19q0 65 -33.5 111t-94.5 53q-64 0 -106 -37.5t-46 -76.5t-4 -48q0 -36 11 -68.5t34 -82.5h188v-54h-172q8 -16 11 -31.5t3 -33.5q0 -30 -10.5 -58t-30.5 -59l41 -4l138 -47q4 -1 12 -1q28 0 51.5 17t41.5 45z" />
<glyph unicode="&#xa4;" d="M740 300q0 -41 -10.5 -74.5t-31.5 -67.5l41 -44l-61 -60l-46 44q-30 -23 -65.5 -35.5t-82.5 -12.5q-46 0 -81.5 12t-66.5 36l-46 -44l-60 60l41 44q-21 33 -31.5 66.5t-10.5 75.5q0 41 10.5 74.5t31.5 67.5l-41 44l60 61l46 -44q30 23 65.5 35.5t82.5 12.5q46 0 81.5 -12 t66.5 -36l46 44l61 -61l-41 -44q21 -33 31.5 -66.5t10.5 -75.5zM659 300q0 74 -50 122t-125 48t-125 -48t-50 -122q0 -70 51 -120t124 -50t124 50t51 120z" />
<glyph unicode="&#xa5;" d="M769 735l-243 -408v-9h135v-75h-135v-45h135v-75h-135v-128h-90v128h-131v75h131v45h-131v75h131v9l-251 408h110l190 -330l181 330h103z" />
<glyph unicode="&#xa6;" d="M445 333v-247h78v247h-78zM444 707v-247h78v247h-78z" />
<glyph unicode="&#xa7;" d="M652 164q-13 -29 -45 -51t-64 -25q50 -18 79 -60t29 -91q0 -34 -13.5 -65t-54.5 -66t-118 -35q-47 0 -88.5 18.5t-68.5 54.5q-15 27 -23 52.5t-8 56.5h85q0 -47 32.5 -76.5t75.5 -29.5q46 0 77 34q10 14 14.5 27t4.5 27q0 36 -28.5 65.5t-70.5 44.5q-63 18 -110 46 t-75 78t-28 103q0 78 38.5 108.5t57.5 41t41 17.5q-52 20 -81.5 58t-29.5 87q0 14 9 52.5t55 76.5t109 38q11 -1 17 -1q73 0 124.5 -46.5t51.5 -114.5q-1 -10 -1 -15h-82q0 46 -32 75t-74 29q-26 0 -47.5 -12.5t-31.5 -36t-10 -40.5q0 -29 16 -52.5t44 -38.5l135 -53 q54 -20 85 -71.5t31 -110.5q0 -29 -6 -53t-21 -46zM579 197q9 14 13 28.5t4 30.5q0 52 -38.5 91.5t-94.5 39.5q-53 -4 -87.5 -42.5t-34.5 -89.5q0 -29 11 -54q20 -30 52.5 -49t66.5 -19q38 0 70 23q10 9 20.5 20t17.5 21z" />
<glyph unicode="&#xa8;" d="M591 769q21 -7 32.5 -24t11.5 -37q0 -24 -14.5 -40t-42.5 -16q-29 0 -45.5 17.5t-16.5 42.5q0 38 36 56q7 2 18 3t17 0zM415 769q21 -7 32.5 -24t11.5 -37q0 -24 -14.5 -40t-42.5 -16q-29 0 -45.5 17.5t-16.5 42.5q0 38 36 56q7 2 18 3t17 0z" />
<glyph unicode="&#xa9;" d="M904 377q0 -165 -114 -279t-281 -114q-165 0 -279.5 114.5t-114.5 278.5q0 165 114.5 279.5t279.5 114.5q166 0 280.5 -114.5t114.5 -279.5zM840 377q0 140 -97 235t-234 95q-136 0 -233 -96t-97 -234t96.5 -233.5t233.5 -95.5q136 0 233.5 95.5t97.5 233.5zM710 307 q-9 -69 -61 -111t-124 -42q-97 0 -158 65t-61 161q0 100 59 164t159 64q72 0 122.5 -40t63.5 -110h-61q-9 42 -42 64t-84 22q-76 0 -114.5 -47.5t-38.5 -114.5q0 -72 41 -118t114 -46q103 0 124 89h61z" />
<glyph unicode="&#xaa;" d="M361 435h240v-55h-240v55zM596 508h-37v46q-28 -52 -92 -52q-29 0 -52 13q-59 39 -59 110q0 28 8 45.5t13 25t14.5 18.5t26 20t27.5 11t21 2q58 0 92 -49v43h38v-233zM549 582q8 21 8 40q0 28 -13 50t-39 33q-6 1 -17 1.5t-20 1.5q-32 -5 -51.5 -30.5t-19.5 -58.5 q0 -19 7.5 -36t25.5 -31.5t47 -14.5q50 0 72 45z" />
<glyph unicode="&#xab;" d="M446 68l-51 -35l-130 199l132 206l49 -34l-116 -172zM623 64l-49 -33l-128 198l130 205l47 -32l-118 -177z" />
<glyph unicode="&#xac;" horiz-adv-x="2500" d="M2374 250q0 -143 -81 -209.5t-226 -66.5q-41 0 -91.5 13.5t-50.5 44.5q0 19 11.5 29.5t28.5 10.5q18 0 36 -10t27 -27q6 -15 22 -24.5t38 -14.5q113 0 171.5 60.5t58.5 183.5q3 29 3 62q0 147 -70.5 268t-229 141.5t-232 29t-135.5 8.5q-55 0 -134 -12.5t-181 -29 t-262 -125.5t-279 -253t-132 -257q21 -30 33.5 -65.5t12.5 -68.5q0 -23 -3.5 -37.5t-18.5 -14.5q-28 0 -44 48t-16 86v12q-61 50 -102.5 90.5t-45 69t-4.5 42.5t-1 32q0 19 3 34q-44 -38 -105 -83.5t-123.5 -80t-102.5 -34.5q-18 0 -32 11t-14 29q0 50 25 126.5t48 107.5 l64 88q10 12 14.5 18t6.5 12q-45 0 -67.5 20.5t-29.5 67.5q8 -2 14.5 -2h14.5q54 0 109.5 31t102.5 78q2 6 7 6q4 0 7.5 -12t3.5 -22q0 -78 -50 -117q-41 -27 -82 -53q-9 -17 -55.5 -81.5t-46.5 -113.5q0 -31 15 -77.5t36 -46.5q33 0 112.5 55t143.5 100q28 66 50 120t45 82 t33.5 37.5t28.5 9.5q11 0 19.5 -7.5t8.5 -19.5q0 -39 -32 -73.5t-77 -63.5q-7 -13 -20 -65.5t-13 -70.5q0 -23 31.5 -68.5t70.5 -96.5q26 124 141 262t260 238t268.5 125.5t215 38.5t194.5 13q76 0 156.5 -7t197 -26t208.5 -134.5t92 -370.5zM2094 566q0 -61 -58.5 -197.5 t-103 -214.5t-78.5 -120t-80 -42q-39 0 -78.5 25.5t-39.5 63.5q0 30 15.5 51t36.5 41q30 -37 47 -52t47 -15q81 0 142 130t61 222q0 54 -29.5 70.5t-84.5 16.5q-87 0 -95 -55t-19 -61l-13 34q1 7 1 23q0 12 -0.5 24.5t-0.5 26.5q0 49 24 77.5t97 28.5q87 0 148 -13t61 -64z M1566 285q0 -59 -39 -113t-137 -128.5t-273 -74.5q-91 0 -160 35.5t-69 117.5q0 51 36.5 91.5t89.5 54.5l3 -9q-39 -15 -61.5 -34.5t-25.5 -57.5q0 -77 81 -104.5t182 -27.5q146 0 216.5 53t86.5 76t16 50q0 42 -33.5 53.5t-83.5 11.5q-29 0 -81 -4.5t-57 -4.5 q-74 0 -126 33t-52 105q0 103 91.5 162t201.5 59q38 0 57 -4t36 -24q8 4 16 4q11 0 26.5 -28t19.5 -29.5t4 -8.5q-4 -12 -29.5 -40t-28.5 -33q-3 -11 -10 -11t-20.5 12.5t-22.5 14.5t-18.5 5.5t-9.5 13.5q0 13 18 36t18 39q0 20 -18.5 28t-42.5 8q-81 0 -155.5 -41.5 t-74.5 -117.5q0 -43 35.5 -58t84.5 -15q27 0 69.5 2.5t48.5 2.5q86 0 138.5 -17t52.5 -83zM1588 21q-6 -26 -46 -26q-11 0 -30 5t-32.5 20.5t-8.5 33.5q7 25 43 25q13 0 32 -5.5t33 -20t9 -32.5zM885 15q-6 -27 -49 -27q-12 0 -30.5 4.5t-33 21.5t-9.5 36q8 26 48 26 q12 0 31 -5t33.5 -21.5t9.5 -34.5z" />
<glyph unicode="&#xae;" d="M874 377q0 -165 -114 -279t-281 -114q-165 0 -279.5 114.5t-114.5 278.5q0 165 114.5 279.5t279.5 114.5q166 0 280.5 -114.5t114.5 -279.5zM810 377q0 140 -97 235t-234 95q-136 0 -233 -96t-97 -234t96.5 -233.5t233.5 -95.5q136 0 233.5 95.5t97.5 233.5zM666 478 q0 -61 -34.5 -91t-84.5 -30l113 -204h-73l-114 204h-82v-204h-64v443h186q70 0 111.5 -26t41.5 -92zM602 471q0 39 -25.5 50t-75.5 11h-110v-111h68q11 0 23 -0.5t25 -0.5q58 0 76.5 13t18.5 38z" />
<glyph unicode="&#xaf;" d="M662 501h-346v85h346v-85z" />
<glyph unicode="&#xb0;" d="M606 646q0 -48 -35 -82t-85 -34t-85.5 33.5t-35.5 82.5t34 84t84 35q51 0 87 -34t36 -85zM570 646q0 34 -23.5 58.5t-58.5 24.5t-60 -23t-25 -57t24 -59t59 -25t59.5 23.5t24.5 57.5z" />
<glyph unicode="&#xb1;" d="M465 136v240h-198v66h198v238h66v-238h191v-66h-193v-240h193v-56h-440v56h183z" />
<glyph unicode="&#xb2;" d="M601 707q7 -18 7 -43q0 -34 -22 -73.5t-56.5 -82.5t-79.5 -81h147v-35h-223v5q96 94 136.5 156.5t46 77t5.5 31.5q0 31 -25 53q-20 12 -43 12q-25 0 -45 -14t-24.5 -35.5t-4.5 -32.5h-46q0 40 18 72.5t48 41t50 8.5q37 0 66 -14.5t45 -45.5z" />
<glyph unicode="&#xb3;" d="M614 638q-18 -42 -59 -52q33 -5 50.5 -30t17.5 -58q0 -22 -8 -44t-23 -37q-35 -30 -88 -30q-41 0 -73 18q-43 31 -43 85h46q-4 -30 16.5 -47t51.5 -17q24 0 42.5 9.5t27 28.5t8.5 34q0 22 -16 44q-13 15 -33 20.5t-46 5.5v35q5 -1 16 -1q30 0 51.5 15t21.5 46 q0 26 -15 48t-39 22q-19 0 -32.5 -2.5t-31 -15t-17.5 -43.5h-45q3 37 23 62.5t46.5 30.5t45.5 5q11 0 17 -1q40 0 66.5 -29.5t26.5 -69.5q0 -19 -5 -32z" />
<glyph unicode="&#xb4;" d="M589 695l-131 -148h-65l85 148h111z" />
<glyph unicode="&#xb5;" d="M582 138l96 325h78l-91 -375l92 20l-1 -43l-168 -53q-38 -15 -58.5 -21.5t-68.5 -6.5l-112 24q-24 -10 -32.5 -23t-20 -25t-45 -68.5t-52.5 -56.5q-7 0 -14 5t-7 13t24.5 55t35 79.5t21 71t18.5 68.5l92 336h78l-92 -346q6 -32 28.5 -47.5t54.5 -15.5q45 0 89.5 25.5 t54.5 58.5z" />
<glyph unicode="&#xb6;" d="M709 671h-62v-824h-84v824h-62v-824h-84v436q-88 0 -147 58t-59 156t60.5 178t154.5 80h283v-84z" />
<glyph unicode="&#xb7;" d="M533 266q-11 -4 -24 -4q-22 0 -37 15t-15 37t17 40q13 8 28 11q26 4 42.5 -11.5t16.5 -39.5q0 -32 -28 -48z" />
<glyph unicode="&#xb8;" d="M496 26l-55 -91l4 -4l16 2l20 1q18 0 24.5 -7t6.5 -16q0 -3 -4 -19t-28 -24q-14 -6 -32 -6l-23 3l-16 4l-14 4l-20 -29q6 -2 19 -5.5t26 -5.5l26 -3q57 0 91 22t39.5 43.5t5.5 26.5q0 16 -14 31.5t-45 15.5h-14l-15 -3l29 45z" />
<glyph unicode="&#xb9;" d="M502 367h-45v332l-75 1l24 37h96v-370z" />
<glyph unicode="&#xba;" d="M391 435h255v-55h-255v55zM640 615q0 -51 -37 -87t-88 -36t-88 36t-37 87q0 52 35.5 88.5t87.5 36.5t89.5 -36.5t37.5 -88.5zM603 615q0 36 -25 62t-60 26q-36 0 -62 -25t-26 -60q0 -36 25 -62t60 -26q37 0 62.5 24.5t25.5 60.5z" />
<glyph unicode="&#xbb;" d="M461 238l-133 -205l-47 31l114 178l-114 160l49 36zM637 234l-130 -203l-50 30l118 173l-116 166l48 34z" />
<glyph unicode="&#xbc;" d="M738 716l-472 -696h-58l474 696h56zM265 369h-45v332l-75 1l24 37h96v-370zM805 81h-43v-82h-39v82h-159l180 292h19v-258h42v-34zM726 113v179l-111 -179h111z" />
<glyph unicode="&#xbd;" d="M714 731l-472 -696h-58l474 696h56zM238 397h-45v332l-75 1l24 37h96v-370zM854 335q7 -18 7 -43q0 -34 -22 -73.5t-56.5 -82.5t-79.5 -81h147v-35h-223v5q96 94 136.5 156.5t46 77t5.5 31.5q0 31 -25 53q-20 12 -43 12q-25 0 -45 -14t-24.5 -35.5t-4.5 -32.5h-46 q0 40 18 72.5t48 41t50 8.5q37 0 66 -14.5t45 -45.5z" />
<glyph unicode="&#xbe;" d="M755 721l-472 -696h-58l474 696h56zM308 626q-18 -42 -59 -52q33 -5 50.5 -30t17.5 -58q0 -22 -8 -44t-23 -37q-35 -30 -88 -30q-41 0 -73 18q-43 31 -43 85h46q-4 -30 16.5 -47t51.5 -17q24 0 42.5 9.5t27 28.5t8.5 34q0 22 -16 44q-13 15 -33 20.5t-46 5.5v35 q5 -1 16 -1q30 0 51.5 15t21.5 46q0 26 -15 48t-39 22q-19 0 -32.5 -2.5t-31 -15t-17.5 -43.5h-45q3 37 23 62.5t46.5 30.5t45.5 5q11 0 17 -1q40 0 66.5 -29.5t26.5 -69.5q0 -19 -5 -32zM839 87h-43v-82h-39v82h-159l180 292h19v-258h42v-34zM760 119v179l-111 -179h111z " />
<glyph unicode="&#xbf;" d="M513 516q22 -5 34.5 -22.5t12.5 -38.5q0 -25 -15 -42t-42 -17q-28 0 -44.5 17.5t-16.5 42.5q0 39 36 56q20 7 35 4zM670 -64q0 -79 -57 -127.5t-133 -48.5q-40 0 -73 13.5t-60 42.5q-32 46 -32 96q0 29 12 59q22 39 54 64l136 94q15 13 26.5 35t11.5 42q0 16 -7.5 29.5 t-24.5 22.5q-14 5 -32 5q-33 0 -55 -22t-22 -57l2 -18h-77q0 69 32 116t98 54q53 0 92.5 -14t61.5 -52q17 -40 17 -78q0 -44 -24 -81q-39 -37 -79 -67.5t-76 -53t-46.5 -41t-10.5 -41.5q0 -12 5 -29q11 -23 31 -34t44 -11q38 0 68.5 25t30.5 64q0 9 -1 13h88z" />
<glyph unicode="&#xc0;" d="M827 0h-104l-95 230h-294l-95 -230h-96l325 760h24zM599 297l-123 318l-120 -318h243zM532 788h-67l-146 152h120z" />
<glyph unicode="&#xc1;" d="M828 -2h-104l-95 230h-294l-95 -230h-96l325 760h24zM600 295l-123 318l-120 -318h243zM678 937l-131 -148h-65l85 148h111z" />
<glyph unicode="&#xc2;" d="M830 -2h-104l-95 230h-294l-95 -230h-96l325 760h24zM602 295l-123 318l-120 -318h243zM649 770h-73l-91 128l-90 -124h-64l111 176h95z" />
<glyph unicode="&#xc3;" d="M831 0h-104l-95 230h-294l-95 -230h-96l325 760h24zM603 297l-123 318l-120 -318h243zM669 873q-26 -48 -53 -67t-54 -19q-16 0 -30.5 6t-41 24t-44 30t-27.5 12q-17 0 -31.5 -13.5t-33.5 -44.5l-44 32q37 54 58.5 70t48.5 16q23 0 42.5 -9t39 -24t35.5 -26.5t27 -11.5 q21 0 33 16.5t28 43.5z" />
<glyph unicode="&#xc4;" d="M831 -5h-104l-95 230h-294l-95 -230h-96l325 760h24zM603 292l-123 318l-120 -318h243zM591 899q21 -7 32.5 -24t11.5 -37q0 -24 -14.5 -40t-42.5 -16q-29 0 -45.5 17.5t-16.5 42.5q0 38 36 56q7 2 18 3t17 0zM415 899q21 -7 32.5 -24t11.5 -37q0 -24 -14.5 -40 t-42.5 -16q-29 0 -45.5 17.5t-16.5 42.5q0 38 36 56q7 2 18 3t17 0z" />
<glyph unicode="&#xc5;" d="M834 -5h-104l-95 230h-294l-95 -230h-96l325 760h24zM606 292l-123 318l-120 -318h243zM589 901q0 -44 -25.5 -76.5t-68.5 -32.5t-68.5 32.5t-25.5 76.5q0 46 25 77.5t69 31.5q43 0 68.5 -32.5t25.5 -76.5zM541 901q0 25 -11 43.5t-35 18.5t-35 -18t-11 -44 q0 -25 11 -43.5t35 -18.5t35 18t11 44z" />
<glyph unicode="&#xc6;" d="M425 736h402v-80h-311v-219h311v-76h-313v-285h313v-80l-395 4l-1 225h-148l-95 -230h-96l331 739zM433 602l-128 -310l127 -1z" />
<glyph unicode="&#xc7;" d="M748 48q-52 -22 -105.5 -34t-108.5 -12q-77 0 -147 25t-128 76q-118 120 -118 283q0 106 46.5 182t91 116.5t85 57t66 22.5t52 9t51.5 3q37 0 78 -6.5t82 -18.5l55 -25v-98q-93 66 -204 66q-75 0 -140 -30.5t-112 -93.5q-27 -40 -41.5 -87t-14.5 -96q0 -85 42.5 -159.5 t117 -112t151.5 -37.5q83 0 149 41l52 33v-104zM526 16l-55 -91l4 -4l16 2l20 1q18 0 24.5 -7t6.5 -16q0 -3 -4 -19t-28 -24q-14 -6 -32 -6l-23 3l-16 4l-14 4l-20 -29q6 -2 19 -5.5t26 -5.5l26 -3q57 0 91 22t39.5 43.5t5.5 26.5q0 16 -14 31.5t-45 15.5h-14l-15 -3l29 45z " />
<glyph unicode="&#xc8;" d="M691 0h-402v740h402v-80h-311v-219h311v-76h-313v-285h313v-80zM517 773h-67l-146 152h120z" />
<glyph unicode="&#xc9;" d="M686 5h-402v740h402v-80h-311v-219h311v-76h-313v-285h313v-80zM649 940l-131 -148h-65l85 148h111z" />
<glyph unicode="&#xca;" d="M686 0h-402v740h402v-80h-311v-219h311v-76h-313v-285h313v-80zM676 780h-73l-91 128l-90 -124h-64l111 176h95z" />
<glyph unicode="&#xcb;" d="M691 0h-402v740h402v-80h-311v-219h311v-76h-313v-285h313v-80zM606 899q21 -7 32.5 -24t11.5 -37q0 -24 -14.5 -40t-42.5 -16q-29 0 -45.5 17.5t-16.5 42.5q0 38 36 56q7 2 18 3t17 0zM430 899q21 -7 32.5 -24t11.5 -37q0 -24 -14.5 -40t-42.5 -16q-29 0 -45.5 17.5 t-16.5 42.5q0 38 36 56q7 2 18 3t17 0z" />
<glyph unicode="&#xcc;" d="M539 0h-87v740h87v-740zM542 783h-67l-146 152h120z" />
<glyph unicode="&#xcd;" d="M539 0h-87v740h87v-740zM644 945l-131 -148h-65l85 148h111z" />
<glyph unicode="&#xce;" d="M539 0h-87v740h87v-740zM660 765h-73l-91 128l-90 -124h-64l111 176h95z" />
<glyph unicode="&#xcf;" d="M539 0h-87v740h87v-740zM596 899q21 -7 32.5 -24t11.5 -37q0 -24 -14.5 -40t-42.5 -16q-29 0 -45.5 17.5t-16.5 42.5q0 38 36 56q7 2 18 3t17 0zM420 899q21 -7 32.5 -24t11.5 -37q0 -24 -14.5 -40t-42.5 -16q-29 0 -45.5 17.5t-16.5 42.5q0 38 36 56q7 2 18 3t17 0z" />
<glyph unicode="&#xd0;" d="M306 405h123l-2 -68h-121v-260h191q113 0 180 90t67 205q0 22 -5.5 76t-65 121t-145.5 86h-222v-250zM219 337h-81l2 68h79v332h315q141 -14 223 -124.5t82 -252.5q0 -105 -46 -191t-112 -118t-105 -43t-77 -11h-280v340z" />
<glyph unicode="&#xd1;" d="M826 -16h-18l-540 594v-578h-83v758h21l535 -594v576h85v-756zM689 873q-26 -48 -53 -67t-54 -19q-16 0 -30.5 6t-41 24t-44 30t-27.5 12q-17 0 -31.5 -13.5t-33.5 -44.5l-44 32q37 54 58.5 70t48.5 16q23 0 42.5 -9t39 -24t35.5 -26.5t27 -11.5q21 0 33 16.5t28 43.5z " />
<glyph unicode="&#xd2;" d="M907 380q0 -164 -115.5 -279.5t-279.5 -115.5q-166 0 -285.5 111.5t-119.5 273.5q0 164 115.5 279.5t279.5 115.5q166 0 285.5 -111.5t119.5 -273.5zM815 382q0 127 -92 215t-221 88q-127 0 -215 -92t-88 -221q0 -127 91.5 -214.5t221.5 -87.5q127 0 215 92t88 220z M552 783h-67l-146 152h120z" />
<glyph unicode="&#xd3;" d="M922 390q0 -164 -115.5 -279.5t-279.5 -115.5q-166 0 -285.5 111.5t-119.5 273.5q0 164 115.5 279.5t279.5 115.5q166 0 285.5 -111.5t119.5 -273.5zM830 392q0 127 -92 215t-221 88q-127 0 -215 -92t-88 -221q0 -127 91.5 -214.5t221.5 -87.5q127 0 215 92t88 220z M734 945l-131 -148h-65l85 148h111z" />
<glyph unicode="&#xd4;" d="M912 380q0 -164 -115.5 -279.5t-279.5 -115.5q-166 0 -285.5 111.5t-119.5 273.5q0 164 115.5 279.5t279.5 115.5q166 0 285.5 -111.5t119.5 -273.5zM820 382q0 127 -92 215t-221 88q-127 0 -215 -92t-88 -221q0 -127 91.5 -214.5t221.5 -87.5q127 0 215 92t88 220z M681 780h-73l-91 128l-90 -124h-64l111 176h95z" />
<glyph unicode="&#xd5;" d="M674 878q-26 -48 -53 -67t-54 -19q-16 0 -30.5 6t-41 24t-44 30t-27.5 12q-17 0 -31.5 -13.5t-33.5 -44.5l-44 32q37 54 58.5 70t48.5 16q23 0 42.5 -9t39 -24t35.5 -26.5t27 -11.5q21 0 33 16.5t28 43.5zM887 385q0 -164 -115.5 -279.5t-279.5 -115.5 q-166 0 -285.5 111.5t-119.5 273.5q0 164 115.5 279.5t279.5 115.5q166 0 285.5 -111.5t119.5 -273.5zM795 387q0 127 -92 215t-221 88q-127 0 -215 -92t-88 -221q0 -127 91.5 -214.5t221.5 -87.5q127 0 215 92t88 220z" />
<glyph unicode="&#xd6;" d="M902 390q0 -164 -115.5 -279.5t-279.5 -115.5q-166 0 -285.5 111.5t-119.5 273.5q0 164 115.5 279.5t279.5 115.5q166 0 285.5 -111.5t119.5 -273.5zM810 392q0 127 -92 215t-221 88q-127 0 -215 -92t-88 -221q0 -127 91.5 -214.5t221.5 -87.5q127 0 215 92t88 220z M611 919q21 -7 32.5 -24t11.5 -37q0 -24 -14.5 -40t-42.5 -16q-29 0 -45.5 17.5t-16.5 42.5q0 38 36 56q7 2 18 3t17 0zM435 919q21 -7 32.5 -24t11.5 -37q0 -24 -14.5 -40t-42.5 -16q-29 0 -45.5 17.5t-16.5 42.5q0 38 36 56q7 2 18 3t17 0z" />
<glyph unicode="&#xd7;" d="M711 532l-136 -136l171 -172l-45 -45l-171 171l-140 -140l-47 47l140 140l-168 168l46 47l169 -168l135 135z" />
<glyph unicode="&#xd8;" d="M772 548l-449 -404q82 -62 190 -62q127 0 215 92t88 220q0 40 -11.5 80t-32.5 74zM277 186l459 410q-43 47 -103.5 74t-129.5 27q-127 0 -215 -92t-88 -221q0 -55 20 -106t57 -92zM210 126q-49 53 -75.5 117.5t-26.5 138.5q0 164 115.5 279.5t279.5 115.5q87 0 163.5 -32 t134.5 -92l74 66h87l-124 -112q33 -47 51.5 -101.5t18.5 -113.5q0 -164 -115.5 -279.5t-279.5 -115.5q-73 0 -137.5 22t-119.5 65l-76 -69h-94z" />
<glyph unicode="&#xd9;" d="M802 755l-2 -504q0 -66 -37 -126.5t-96 -91.5q-82 -37 -170 -37t-158 39t-93 91.5t-29.5 79.5t-6.5 49v500h89v-500q7 -52 30 -93.5t66 -62.5q56 -24 113 -24q45 0 83 14.5t64.5 44.5t41 59.5t14.5 61.5v8v492h91zM532 778h-67l-146 152h120z" />
<glyph unicode="&#xda;" d="M807 755l-2 -504q0 -66 -37 -126.5t-96 -91.5q-82 -37 -170 -37t-158 39t-93 91.5t-29.5 79.5t-6.5 49v500h89v-500q7 -52 30 -93.5t66 -62.5q56 -24 113 -24q45 0 83 14.5t64.5 44.5t41 59.5t14.5 61.5v8v492h91zM669 925l-131 -148h-65l85 148h111z" />
<glyph unicode="&#xdb;" d="M797 755l-2 -504q0 -66 -37 -126.5t-96 -91.5q-82 -37 -170 -37t-158 39t-93 91.5t-29.5 79.5t-6.5 49v500h89v-500q7 -52 30 -93.5t66 -62.5q56 -24 113 -24q45 0 83 14.5t64.5 44.5t41 59.5t14.5 61.5v8v492h91zM656 780h-73l-91 128l-90 -124h-64l111 176h95z" />
<glyph unicode="&#xdc;" d="M792 745l-2 -504q0 -66 -37 -126.5t-96 -91.5q-82 -37 -170 -37t-158 39t-93 91.5t-29.5 79.5t-6.5 49v500h89v-500q7 -52 30 -93.5t66 -62.5q56 -24 113 -24q45 0 83 14.5t64.5 44.5t41 59.5t14.5 61.5v8v492h91zM606 904q21 -7 32.5 -24t11.5 -37q0 -24 -14.5 -40 t-42.5 -16q-29 0 -45.5 17.5t-16.5 42.5q0 38 36 56q7 2 18 3t17 0zM430 904q21 -7 32.5 -24t11.5 -37q0 -24 -14.5 -40t-42.5 -16q-29 0 -45.5 17.5t-16.5 42.5q0 38 36 56q7 2 18 3t17 0z" />
<glyph unicode="&#xdd;" d="M976 740l-243 -408v-332h-90v332l-251 408h110l190 -330l181 330h103zM814 903l-131 -148h-65l85 148h111z" />
<glyph unicode="&#xde;" d="M634 450q0 82 -28 103.5t-92 21.5h-82v-226h54q95 0 121.5 17t26.5 84zM324 26v749h107v-120h112q100 0 146.5 -54t46.5 -135q0 -94 -54 -148t-152 -54h-98l-1 -10v-228h-107z" />
<glyph unicode="&#xdf;" d="M705 98q-33 -53 -86 -79.5t-115 -26.5q-41 0 -78 10v74q36 -12 72 -12q46 0 79.5 18.5t49 49t20.5 53.5t5 45q0 56 -26.5 99.5t-78.5 61.5l-108 11v67q53 0 90 13t50 46t13 61q0 51 -33 87t-86 36q-11 0 -17 -1q-25 0 -47 -13t-31.5 -27.5t-15.5 -28t-10 -23.5v-619 l-74 -5l-3 607q0 69 42 120t81.5 56t54.5 6t30 1q7 0 15.5 -1t42.5 -6.5t84 -50t50 -106.5q0 -63 -21 -109.5t-73 -66.5q78 -9 116.5 -69t38.5 -142q0 -37 -7.5 -70.5t-23.5 -65.5z" />
<glyph unicode="&#xe0;" d="M725 10h-75v92q-25 -49 -76 -76.5t-107 -27.5q-28 0 -54 6t-66 31t-71.5 84t-31.5 126q0 56 24 109q17 33 55.5 75.5t111.5 55.5q8 0 17.5 1t14.5 1q56 0 102.5 -25t78.5 -73v86h77v-465zM631 158q15 38 15 80q0 56 -26 100t-78 65q-18 5 -44 6t-30 1q-64 -10 -103 -62.5 t-39 -115.5q0 -39 14.5 -71.5t52.5 -63t94 -30.5q47 0 85 23.5t59 67.5zM517 568h-67l-146 152h120z" />
<glyph unicode="&#xe1;" d="M730 15h-75v92q-25 -49 -76 -76.5t-107 -27.5q-28 0 -54 6t-66 31t-71.5 84t-31.5 126q0 56 24 109q17 33 55.5 75.5t111.5 55.5q8 0 17.5 1t14.5 1q56 0 102.5 -25t78.5 -73v86h77v-465zM636 163q15 38 15 80q0 56 -26 100t-78 65q-18 5 -44 6t-30 1q-64 -10 -103 -62.5 t-39 -115.5q0 -39 14.5 -71.5t52.5 -63t94 -30.5q47 0 85 23.5t59 67.5zM664 725l-131 -148h-65l85 148h111z" />
<glyph unicode="&#xe2;" d="M730 5h-75v92q-25 -49 -76 -76.5t-107 -27.5q-28 0 -54 6t-66 31t-71.5 84t-31.5 126q0 56 24 109q17 33 55.5 75.5t111.5 55.5q8 0 17.5 1t14.5 1q56 0 102.5 -25t78.5 -73v86h77v-465zM636 153q15 38 15 80q0 56 -26 100t-78 65q-18 5 -44 6t-30 1q-64 -10 -103 -62.5 t-39 -115.5q0 -39 14.5 -71.5t52.5 -63t94 -30.5q47 0 85 23.5t59 67.5zM651 550h-73l-91 128l-90 -124h-64l111 176h95z" />
<glyph unicode="&#xe3;" d="M730 20h-75v92q-25 -49 -76 -76.5t-107 -27.5q-28 0 -54 6t-66 31t-71.5 84t-31.5 126q0 56 24 109q17 33 55.5 75.5t111.5 55.5q8 0 17.5 1t14.5 1q56 0 102.5 -25t78.5 -73v86h77v-465zM636 168q15 38 15 80q0 56 -26 100t-78 65q-18 5 -44 6t-30 1q-64 -10 -103 -62.5 t-39 -115.5q0 -39 14.5 -71.5t52.5 -63t94 -30.5q47 0 85 23.5t59 67.5zM684 653q-26 -48 -53 -67t-54 -19q-16 0 -30.5 6t-41 24t-44 30t-27.5 12q-17 0 -31.5 -13.5t-33.5 -44.5l-44 32q37 54 58.5 70t48.5 16q23 0 42.5 -9t39 -24t35.5 -26.5t27 -11.5q21 0 33 16.5 t28 43.5z" />
<glyph unicode="&#xe4;" d="M725 10h-75v92q-25 -49 -76 -76.5t-107 -27.5q-28 0 -54 6t-66 31t-71.5 84t-31.5 126q0 56 24 109q17 33 55.5 75.5t111.5 55.5q8 0 17.5 1t14.5 1q56 0 102.5 -25t78.5 -73v86h77v-465zM631 158q15 38 15 80q0 56 -26 100t-78 65q-18 5 -44 6t-30 1q-64 -10 -103 -62.5 t-39 -115.5q0 -39 14.5 -71.5t52.5 -63t94 -30.5q47 0 85 23.5t59 67.5zM596 694q21 -7 32.5 -24t11.5 -37q0 -24 -14.5 -40t-42.5 -16q-29 0 -45.5 17.5t-16.5 42.5q0 38 36 56q7 2 18 3t17 0zM420 694q21 -7 32.5 -24t11.5 -37q0 -24 -14.5 -40t-42.5 -16 q-29 0 -45.5 17.5t-16.5 42.5q0 38 36 56q7 2 18 3t17 0z" />
<glyph unicode="&#xe5;" d="M750 15h-75v92q-25 -49 -76 -76.5t-107 -27.5q-28 0 -54 6t-66 31t-71.5 84t-31.5 126q0 56 24 109q17 33 55.5 75.5t111.5 55.5q8 0 17.5 1t14.5 1q56 0 102.5 -25t78.5 -73v86h77v-465zM656 163q15 38 15 80q0 56 -26 100t-78 65q-18 5 -44 6t-30 1q-64 -10 -103 -62.5 t-39 -115.5q0 -39 14.5 -71.5t52.5 -63t94 -30.5q47 0 85 23.5t59 67.5zM602 636q0 -44 -25.5 -76.5t-68.5 -32.5t-68.5 32.5t-25.5 76.5q0 46 25 77.5t69 31.5q43 0 68.5 -32.5t25.5 -76.5zM554 636q0 25 -11 43.5t-35 18.5t-35 -18t-11 -44q0 -25 11 -43.5t35 -18.5t35 18 t11 44z" />
<glyph unicode="&#xe6;" d="M836 286q-11 56 -53 91.5t-99 35.5q-51 0 -89.5 -37.5t-50.5 -89.5h292zM476 137q-18 47 -18 99q0 50 16 94q-13 23 -32.5 40.5t-45.5 27.5q-18 5 -44 6t-30 1q-64 -10 -103 -60.5t-39 -114.5q0 -39 14.5 -73.5t52.5 -64.5t93 -30q42 0 78 19.5t58 55.5zM502 384v61h59 q20 13 42.5 22t44.5 12.5t42 3.5q64 0 119.5 -29t81.5 -88.5t26 -139.5h-377q0 -68 43 -117t108 -49q20 0 36 4q40 6 69 28.5t57 60.5l66 -41q-41 -56 -102 -88t-127 -32q-63 0 -118 29l7 -16h-75v80l-4 5q-26 -46 -74.5 -71.5t-104.5 -25.5q-28 0 -54 6t-66 31t-71.5 82 t-31.5 123q0 47 18 94t59 92.5t114 58.5q8 0 17.5 1t14.5 1q56 0 102.5 -25t78.5 -73z" />
<glyph unicode="&#xe7;" d="M704 39q-17 -22 -51.5 -29.5t-74.5 -7.5q-8 -1 -17 -1h-14q-74 0 -132.5 34t-88.5 100q-23 57 -23 113q0 53 20.5 100t59.5 81.5t87 47.5t104 13q65 0 122 -31v-80q-9 -2 -37.5 13.5t-43.5 19t-48 3.5q-37 0 -70 -11.5t-58 -36.5q-50 -58 -50 -124q0 -52 32 -100 q8 -10 18.5 -20t24.5 -21q46 -28 100 -28q37 0 74 14q23 18 49 33q12 4 17 2v-84zM561 1l-48 -84l3 -4l14 2l18 1q15 0 21 -7t6 -14q0 -2 -3 -17t-19 -21.5t-34 -6.5q-14 0 -20 2l-14 4l-13 4l-17 -27q7 -3 19 -6t20 -4l23 -3q51 0 81 20.5t34 37.5t4 21v6q0 16 -12 29.5 t-39 13.5h-12l-14 -2l26 41z" />
<glyph unicode="&#xe8;" d="M744 119q-42 -56 -102 -88t-127 -32q-64 0 -122 31q-54 35 -82 91t-28 122q0 89 51.5 159.5t106 79t74.5 8.5q64 0 119.5 -29t81.5 -88.5t26 -139.5h-377q0 -68 43 -117t108 -49q20 0 36 4q40 6 69 28.5t57 60.5zM661 293q-11 56 -53 91.5t-99 35.5q-51 0 -89.5 -37.5 t-50.5 -89.5h292zM562 583h-67l-146 152h120z" />
<glyph unicode="&#xe9;" d="M734 124q-42 -56 -102 -88t-127 -32q-64 0 -122 31q-54 35 -82 91t-28 122q0 89 51.5 159.5t106 79t74.5 8.5q64 0 119.5 -29t81.5 -88.5t26 -139.5h-377q0 -68 43 -117t108 -49q20 0 36 4q40 6 69 28.5t57 60.5zM651 298q-11 56 -53 91.5t-99 35.5q-51 0 -89.5 -37.5 t-50.5 -89.5h292zM689 725l-131 -148h-65l85 148h111z" />
<glyph unicode="&#xea;" d="M744 119q-42 -56 -102 -88t-127 -32q-64 0 -122 31q-54 35 -82 91t-28 122q0 89 51.5 159.5t106 79t74.5 8.5q64 0 119.5 -29t81.5 -88.5t26 -139.5h-377q0 -68 43 -117t108 -49q20 0 36 4q40 6 69 28.5t57 60.5zM661 293q-11 56 -53 91.5t-99 35.5q-51 0 -89.5 -37.5 t-50.5 -89.5h292zM691 545h-73l-91 128l-90 -124h-64l111 176h95z" />
<glyph unicode="&#xeb;" d="M739 109q-42 -56 -102 -88t-127 -32q-64 0 -122 31q-54 35 -82 91t-28 122q0 89 51.5 159.5t106 79t74.5 8.5q64 0 119.5 -29t81.5 -88.5t26 -139.5h-377q0 -68 43 -117t108 -49q20 0 36 4q40 6 69 28.5t57 60.5zM656 283q-11 56 -53 91.5t-99 35.5q-51 0 -89.5 -37.5 t-50.5 -89.5h292zM646 679q21 -7 32.5 -24t11.5 -37q0 -24 -14.5 -40t-42.5 -16q-29 0 -45.5 17.5t-16.5 42.5q0 38 36 56q7 2 18 3t17 0zM470 679q21 -7 32.5 -24t11.5 -37q0 -24 -14.5 -40t-42.5 -16q-29 0 -45.5 17.5t-16.5 42.5q0 38 36 56q7 2 18 3t17 0z" />
<glyph unicode="&#xec;" d="M524 5h-83v463h83v-463zM527 573h-67l-146 152h120z" />
<glyph unicode="&#xed;" d="M524 0h-83v463h83v-463zM644 720l-131 -148h-65l85 148h111z" />
<glyph unicode="&#xee;" d="M529 0h-83v463h83v-463zM656 540h-73l-91 128l-90 -124h-64l111 176h95z" />
<glyph unicode="&#xef;" d="M502 5h-78v446h78v-446zM561 654q21 -7 32.5 -24t11.5 -37q0 -24 -14.5 -40t-42.5 -16q-29 0 -45.5 17.5t-16.5 42.5q0 38 36 56q7 2 18 3t17 0zM385 654q21 -7 32.5 -24t11.5 -37q0 -24 -14.5 -40t-42.5 -16q-29 0 -45.5 17.5t-16.5 42.5q0 38 36 56q7 2 18 3t17 0z" />
<glyph unicode="&#xf0;" d="M564 94q24 23 36 53.5t12 61.5q0 58 -36.5 101.5t-96.5 43.5q-36 0 -64 -8q-42 -18 -64 -54.5t-22 -80.5q0 -42 20 -82q19 -33 52 -50.5t71 -17.5q53 0 92 33zM439 542l-89 -76q-1 1 -14.5 7t-14.5 10q-2 4 0.5 12.5t5.5 16.5l82 69l-110 140l70 43l99 -133l96 80 q15 -2 23.5 -3.5t9.5 -5.5q1 -7 -0.5 -15t-4.5 -14l-95 -81l140 -188q28 -47 45 -97t17 -97q0 -44 -13.5 -82t-43.5 -72t-74 -51.5t-92 -17.5q-16 0 -24 1q-92 0 -151.5 69.5t-59.5 161.5q0 45 19.5 94t74 83.5t113.5 34.5q65 0 110 -42z" />
<glyph unicode="&#xf1;" d="M697 5h-85v324q-10 36 -39 58t-66 22q-20 0 -42 -8q-28 -15 -48.5 -37.5t-29.5 -51.5v-307h-81v465h79v-80q26 43 62 66.5t86 23.5q68 0 111.5 -41.5t52.5 -111.5v-322zM684 658q-26 -48 -53 -67t-54 -19q-16 0 -30.5 6t-41 24t-44 30t-27.5 12q-17 0 -31.5 -13.5 t-33.5 -44.5l-44 32q37 54 58.5 70t48.5 16q23 0 42.5 -9t39 -24t35.5 -26.5t27 -11.5q21 0 33 16.5t28 43.5z" />
<glyph unicode="&#xf2;" d="M750 244q0 -101 -73.5 -172.5t-176.5 -71.5q-104 0 -177.5 71.5t-73.5 173.5q0 103 71.5 176.5t174.5 73.5q105 0 180 -73t75 -178zM675 244q0 73 -49.5 124.5t-120.5 51.5q-73 0 -124.5 -49.5t-51.5 -120.5t50 -123t121 -52t123 49t52 120zM522 568h-67l-146 152h120z " />
<glyph unicode="&#xf3;" d="M745 244q0 -101 -73.5 -172.5t-176.5 -71.5q-104 0 -177.5 71.5t-73.5 173.5q0 103 71.5 176.5t174.5 73.5q105 0 180 -73t75 -178zM670 244q0 73 -49.5 124.5t-120.5 51.5q-73 0 -124.5 -49.5t-51.5 -120.5t50 -123t121 -52t123 49t52 120zM689 730l-131 -148h-65 l85 148h111z" />
<glyph unicode="&#xf4;" d="M760 244q0 -101 -73.5 -172.5t-176.5 -71.5q-104 0 -177.5 71.5t-73.5 173.5q0 103 71.5 176.5t174.5 73.5q105 0 180 -73t75 -178zM685 244q0 73 -49.5 124.5t-120.5 51.5q-73 0 -124.5 -49.5t-51.5 -120.5t50 -123t121 -52t123 49t52 120zM676 560h-73l-91 128 l-90 -124h-64l111 176h95z" />
<glyph unicode="&#xf5;" d="M760 244q0 -101 -73.5 -172.5t-176.5 -71.5q-104 0 -177.5 71.5t-73.5 173.5q0 103 71.5 176.5t174.5 73.5q105 0 180 -73t75 -178zM685 244q0 73 -49.5 124.5t-120.5 51.5q-73 0 -124.5 -49.5t-51.5 -120.5t50 -123t121 -52t123 49t52 120zM704 668q-26 -48 -53 -67 t-54 -19q-16 0 -30.5 6t-41 24t-44 30t-27.5 12q-17 0 -31.5 -13.5t-33.5 -44.5l-44 32q37 54 58.5 70t48.5 16q23 0 42.5 -9t39 -24t35.5 -26.5t27 -11.5q21 0 33 16.5t28 43.5z" />
<glyph unicode="&#xf6;" d="M750 239q0 -101 -73.5 -172.5t-176.5 -71.5q-104 0 -177.5 71.5t-73.5 173.5q0 103 71.5 176.5t174.5 73.5q105 0 180 -73t75 -178zM675 239q0 73 -49.5 124.5t-120.5 51.5q-73 0 -124.5 -49.5t-51.5 -120.5t50 -123t121 -52t123 49t52 120zM611 674q21 -7 32.5 -24 t11.5 -37q0 -24 -14.5 -40t-42.5 -16q-29 0 -45.5 17.5t-16.5 42.5q0 38 36 56q7 2 18 3t17 0zM435 674q21 -7 32.5 -24t11.5 -37q0 -24 -14.5 -40t-42.5 -16q-29 0 -45.5 17.5t-16.5 42.5q0 38 36 56q7 2 18 3t17 0z" />
<glyph unicode="&#xf8;" d="M610 331l-239 -240q44 -29 94 -29q71 0 123 49t52 120q0 27 -8 52.5t-22 47.5zM333 126l242 243q-24 19 -49.5 28.5t-55.5 9.5q-73 0 -124.5 -49.5t-51.5 -120.5q0 -63 39 -111zM277 70q-30 34 -46.5 75t-16.5 87q0 103 71.5 176.5t174.5 73.5q46 0 89.5 -16t77.5 -45 l32 32h72l-68 -69q52 -66 52 -153q0 -101 -73.5 -172.5t-176.5 -71.5q-82 0 -149 48l-38 -38h-74z" />
<glyph unicode="&#xf9;" d="M712 170q-9 -69 -50.5 -114.5t-86 -53t-64.5 -7.5q-58 0 -106 24.5t-74 74.5q-13 34 -16 66v315h85v-274q0 -54 30.5 -94.5t81.5 -40.5q8 1 12 1q42 5 72.5 35.5t30.5 71.5v301h85v-305zM552 558h-67l-146 152h120z" />
<glyph unicode="&#xfa;" d="M722 175q-9 -69 -50.5 -114.5t-86 -53t-64.5 -7.5q-58 0 -106 24.5t-74 74.5q-13 34 -16 66v315h85v-274q0 -54 30.5 -94.5t81.5 -40.5q8 1 12 1q42 5 72.5 35.5t30.5 71.5v301h85v-305zM679 705l-131 -148h-65l85 148h111z" />
<glyph unicode="&#xfb;" d="M717 170q-9 -69 -50.5 -114.5t-86 -53t-64.5 -7.5q-58 0 -106 24.5t-74 74.5q-13 34 -16 66v315h85v-274q0 -54 30.5 -94.5t81.5 -40.5q8 1 12 1q42 5 72.5 35.5t30.5 71.5v301h85v-305zM681 555h-73l-91 128l-90 -124h-64l111 176h95z" />
<glyph unicode="&#xfc;" d="M712 170q-9 -69 -50.5 -114.5t-86 -53t-64.5 -7.5q-58 0 -106 24.5t-74 74.5q-13 34 -16 66v315h85v-274q0 -54 30.5 -94.5t81.5 -40.5q8 1 12 1q42 5 72.5 35.5t30.5 71.5v301h85v-305zM616 684q21 -7 32.5 -24t11.5 -37q0 -24 -14.5 -40t-42.5 -16q-29 0 -45.5 17.5 t-16.5 42.5q0 38 36 56q7 2 18 3t17 0zM440 684q21 -7 32.5 -24t11.5 -37q0 -24 -14.5 -40t-42.5 -16q-29 0 -45.5 17.5t-16.5 42.5q0 38 36 56q7 2 18 3t17 0z" />
<glyph unicode="&#xfd;" d="M992 462l-308 -688h-91l136 295l-199 393h100l140 -324l131 324h91zM943 682l-131 -148h-65l85 148h111z" />
<glyph unicode="&#xfe;" d="M665 267q0 81 -23.5 100.5t-85.5 19.5h-115v-261h97q81 0 104 32t23 109zM349 -110v775l87 -2v-215h127q98 0 140 -54t42 -136q0 -96 -44 -142t-141 -46h-119v-4h-5v-176h-87z" />
<glyph unicode="&#xff;" d="M731 466l-308 -688h-91l136 295l-199 393h100l140 -324l131 324h91zM611 648q21 -7 32.5 -24t11.5 -37q0 -24 -14.5 -40t-42.5 -16q-29 0 -45.5 17.5t-16.5 42.5q0 38 36 56q7 2 18 3t17 0zM435 648q21 -7 32.5 -24t11.5 -37q0 -24 -14.5 -40t-42.5 -16q-29 0 -45.5 17.5 t-16.5 42.5q0 38 36 56q7 2 18 3t17 0z" />
<glyph unicode="&#x131;" d="M529 0h-83v463h83v-463z" />
<glyph unicode="&#x141;" d="M350 333l-72 -36l-2 83l74 37v319h92v-273l115 57l2 -80l-117 -60v-304h273v-80h-365v337z" />
<glyph unicode="&#x142;" d="M530 459l99 86l-4 -83l-95 -80v-386h-87v312l-84 -71l-1 72l85 74v353h87v-277z" />
<glyph unicode="&#x152;" d="M574 124v527q-73 44 -164 44q-127 0 -215 -92t-88 -221q0 -127 91.5 -214.5t221.5 -87.5q40 0 80 11.5t74 32.5zM574 743v17h417v-83h-322v-226h322v-79h-324v-294h324v-83h-417v32q-34 -14 -75 -23t-79 -9q-166 0 -285.5 111.5t-119.5 273.5q0 164 115.5 279.5 t279.5 115.5q91 0 164 -32z" />
<glyph unicode="&#x153;" d="M846 288q-11 56 -53 91.5t-99 35.5q-51 0 -89.5 -37.5t-50.5 -89.5h292zM470 202q-1 12 -1.5 21.5t-0.5 16.5q0 18 3 38q-13 59 -59 98t-107 39q-73 0 -124.5 -49.5t-51.5 -120.5t50 -123t121 -52q61 0 108.5 37t61.5 95zM507 379q26 41 64.5 68t73.5 32.5t55 5.5 q64 0 119.5 -29t81.5 -88.5t26 -139.5h-377q0 -68 43 -117t108 -49q20 0 36 4q40 6 69 28.5t57 60.5l66 -41q-42 -56 -102 -88t-127 -32q-64 0 -122 31q-45 29 -73 76q-34 -49 -88.5 -77.5t-116.5 -28.5q-104 0 -177.5 71.5t-73.5 173.5q0 103 71.5 176.5t174.5 73.5 q64 0 120.5 -29.5t91.5 -81.5z" />
<glyph unicode="&#x160;" d="M884 979l-112 -180h-95l-111 176h64l90 -124l91 128h73zM931 622l-79 -37q-11 46 -53 74.5t-92 28.5q-37 0 -65 -14.5t-46 -47.5q-12 -27 -12 -55q0 -67 63 -101l190 -70q52 -29 79.5 -78.5t27.5 -105.5q0 -48 -19.5 -92t-58.5 -78q-70 -49 -157 -49q-78 0 -143 39 q-35 26 -53.5 58.5t-33.5 84.5l81 41q0 -63 45 -105t106 -42q24 0 47.5 7.5t46 24.5t36 46t13.5 61q0 48 -21.5 71t-34 31t-50.5 25l-128 45q-57 27 -92 73.5t-35 105.5q0 15 7.5 54.5t47.5 83.5t87.5 53.5t84.5 9.5q16 0 25 -1t46.5 -8.5t80 -43.5t59.5 -89z" />
<glyph unicode="&#x161;" d="M966 731l-112 -180h-95l-111 176h64l90 -124l91 128h73zM967 392l-66 -39q-8 28 -40.5 46.5t-69.5 18.5q-26 0 -46 -10.5t-26.5 -28t-6.5 -28.5q0 -26 30 -51l156 -55q35 -15 53 -44t18 -63q0 -44 -25.5 -82.5t-69.5 -54.5q-16 -4 -36.5 -7t-37.5 -3q-56 0 -104.5 22.5 t-82.5 67.5l70 47q16 -33 48 -53t69 -20q35 0 56.5 15t27.5 27t6 25q0 21 -14 38.5t-39 26.5q-48 14 -100.5 31t-75.5 49q-29 37 -29 79q0 65 42.5 94.5t75 35.5t76.5 6q48 -4 80.5 -26t60.5 -64z" />
<glyph unicode="&#x178;" d="M786 740l-243 -408v-332h-90v332l-251 408h110l190 -330l181 330h103zM601 878q21 -7 32.5 -24t11.5 -37q0 -24 -14.5 -40t-42.5 -16q-29 0 -45.5 17.5t-16.5 42.5q0 38 36 56q7 2 18 3t17 0zM425 878q21 -7 32.5 -24t11.5 -37q0 -24 -14.5 -40t-42.5 -16 q-29 0 -45.5 17.5t-16.5 42.5q0 38 36 56q7 2 18 3t17 0z" />
<glyph unicode="&#x192;" d="M499 26q-10 -55 -47 -89.5t-92 -34.5q-10 0 -22.5 1.5t-22 3.5t-25.5 8v78q26 -17 56 -17q34 0 56 23l9 13.5t5 13.5l-1 278h-92v63h94v289q10 55 46.5 87.5t91.5 32.5q11 0 23.5 -1.5t22 -3.5t25.5 -8v-78q-26 17 -56 17q-34 0 -56 -23q-4 -6 -8.5 -13.5t-5.5 -13.5 v-285h126v-63h-128z" />
<glyph unicode="&#x2ba;" d="M480 700l-88 -158l-32 -20l51 207q5 13 17.5 22t22.5 9q14 0 23.5 -12.5t9.5 -29.5q0 -10 -4 -18zM615 690l-88 -158l-32 -20l51 207q5 13 17.5 22t22.5 9q14 0 23.5 -12.5t9.5 -29.5q0 -10 -4 -18z" />
<glyph unicode="&#x2c6;" d="M656 595h-73l-91 128l-90 -124h-64l111 176h95z" />
<glyph unicode="&#x2c7;" d="M662 775l-112 -180h-95l-111 176h64l90 -124l91 128h73z" />
<glyph unicode="&#x2d8;" d="M280 580q20 -82 71.5 -123.5t148.5 -41.5q92 0 136 56.5t70 113.5h-66h-5q-17 -37 -47 -73.5t-93 -36.5q-52 0 -90 34.5t-65 70.5h-60z" />
<glyph unicode="&#x2d9;" d="M502 629q-10 -2 -15 -2q-24 0 -39.5 17.5t-15.5 41.5q0 15 6.5 26.5t22.5 19.5q7 2 16.5 5t17.5 1q23 -3 36 -19t13 -36q0 -42 -42 -54z" />
<glyph unicode="&#x2da;" d="M577 646q0 -44 -25.5 -76.5t-68.5 -32.5t-68.5 32.5t-25.5 76.5q0 46 25 77.5t69 31.5q43 0 68.5 -32.5t25.5 -76.5zM529 646q0 25 -11 43.5t-35 18.5t-35 -18t-11 -44q0 -25 11 -43.5t35 -18.5t35 18t11 44z" />
<glyph unicode="&#x2db;" d="M508 85l-45 5q-72 -26 -87 -74t-15 -69q0 -6 1 -14t3.5 -27t7.5 -31.5t17 -27.5t30 -23.5t38.5 -12t25.5 -3.5q16 0 25.5 2t39 11t59.5 29v80l-40 -15q-17 -9 -26.5 -13.5t-24 -7t-27.5 -2.5q-17 0 -32.5 8.5t-23 21.5t-10.5 29t-3 21q0 18 6 29.5t23 39.5t58 44z" />
<glyph unicode="&#x2dc;" d="M674 728q-26 -48 -53 -67t-54 -19q-16 0 -30.5 6t-41 24t-44 30t-27.5 12q-17 0 -31.5 -13.5t-33.5 -44.5l-44 32q37 54 58.5 70t48.5 16q23 0 42.5 -9t39 -24t35.5 -26.5t27 -11.5q21 0 33 16.5t28 43.5z" />
<glyph unicode="&#x2013;" d="M741 278h-501v75h501v-75z" />
<glyph unicode="&#x2014;" d="M1001 283h-1001v75h1001v-75z" />
<glyph unicode="&#x2018;" d="M559 748l-110 -276l-79 32l133 267z" />
<glyph unicode="&#x2019;" d="M600 740l-133 -268l-56 23l110 276z" />
<glyph unicode="&#x201a;" d="M600 125l-133 -268l-56 23l110 276z" />
<glyph unicode="&#x201c;" d="M621 748l-110 -276l-79 32l133 267zM455 748l-110 -276l-79 32l133 267z" />
<glyph unicode="&#x201d;" d="M634 740l-133 -268l-56 23l110 276zM468 740l-133 -268l-56 23l110 276z" />
<glyph unicode="&#x201e;" d="M634 130l-133 -268l-56 23l110 276zM468 130l-133 -268l-56 23l110 276z" />
<glyph unicode="&#x2020;" d="M737 404l-193 -2v-607h-83v607l-192 2v67h192v287h83v-285h193v-69z" />
<glyph unicode="&#x2021;" d="M730 27l-191 -2v-191h-83v189l-190 2v73h190v298l-190 4v71h190v193h83v-191h191v-73l-191 -4v-294h191v-75z" />
<glyph unicode="&#x2022;" d="M672 377q0 -78 -56 -133t-133 -55q-78 0 -133 54t-55 134q0 79 54.5 134.5t133.5 55.5t134 -55t55 -135z" />
<glyph unicode="&#x2026;" d="M893 42q0 -24 -17 -41t-41 -17t-41 17t-17 41t17 41t41 17t41 -17t17 -41zM559 42q0 -24 -17 -41t-41 -17q-25 0 -42 17t-17 41t17 41t42 17q24 0 41 -17t17 -41zM224 42q0 -24 -17 -41t-41 -17t-41 17t-17 41t17 41t41 17t41 -17t17 -41z" />
<glyph unicode="&#x2030;" d="M273 462q0 -81 -40 -141.5t-117 -60.5q-76 0 -118.5 61.5t-42.5 141.5q0 86 39.5 149t120.5 63q69 0 113.5 -61.5t44.5 -151.5zM522 659l-324 -659h-59l325 659h58zM1079 196q0 -90 -44 -151t-114 -61q-80 0 -120 63t-40 148q0 79 42.5 141t118.5 62t116.5 -61t40.5 -141 zM707 196q0 -90 -44 -151t-114 -61q-80 0 -120.5 63t-40.5 148q0 79 43 141t119 62t116.5 -61t40.5 -141zM209 466q0 58 -23.5 109.5t-73.5 51.5t-71.5 -49t-21.5 -105q0 -61 22.5 -113t74.5 -52q50 0 71.5 49.5t21.5 108.5zM1015 188q0 58 -23.5 110t-73.5 52t-71.5 -49 t-21.5 -106q0 -61 22.5 -112t74.5 -51q51 0 72 48.5t21 107.5zM643 188q0 58 -23.5 110t-73.5 52t-71.5 -49t-21.5 -106q0 -61 22.5 -112t74.5 -51q51 0 72 49t21 107z" />
<glyph unicode="&#x2039;" d="M600 129l-56 -41l-182 232l182 241l56 -41l-149 -200z" />
<glyph unicode="&#x203a;" d="M636 320l-182 -232l-56 41l149 191l-149 200l56 41z" />
<glyph unicode="&#x2122;" d="M907 333h-64v358l-146 -358h-39l-140 358l-2 -358h-65v422h106l121 -298l125 298h104v-422zM374 691h-138v-358h-64v358h-138v64h340v-64z" />
<glyph unicode="&#x2202;" d="M295 309q-17 -45 -17 -90q0 -93 59 -162t152 -69q17 -1 25 -1q49 0 91.5 16.5t72 50.5t44 74.5t14.5 81.5q0 48 -16 96t-46 98l-268 360l-70 -43l259 -332q-45 42 -110 42q-59 0 -113.5 -34.5t-76.5 -87.5zM386 129q-20 40 -20 82q0 44 22 80.5t64 54.5q12 4 30 6t34 2 q61 0 97 -42.5t36 -102.5q0 -33 -11.5 -62.5t-36.5 -52.5q-39 -33 -92 -33q-38 0 -71 17.5t-52 50.5z" />
<glyph unicode="&#x2212;" d="M723 169h-494v98h494v-98z" />
<glyph unicode="&#x2215;" d="M734 728l-472 -696h-58l474 696h56z" />
<glyph unicode="&#x221a;" d="M215 335l49 50l147 -263l288 637h76v-60h-51l-309 -688l-156 292l-40 -32z" />
<glyph unicode="&#x2260;" d="M471 299h-228l-1 86h263l28 72h78l-29 -72h172l1 -86h-208l-35 -86h242l1 -86h-278l-28 -71h-74l28 71h-160l-1 86h195z" />
<glyph unicode="&#x2264;" d="M239 113h500v-52h-500v52zM740 202l-512 206l-1 71l512 206l1 -93l-385 -148l385 -148v-94z" />
<glyph unicode="&#x2265;" d="M248 211l512 206l1 71l-512 206l-1 -93l385 -148l-385 -148v-94zM749 122h-500v-52h500v52z" />
<glyph unicode="&#xe000;" horiz-adv-x="465" d="M0 465h465v-465h-465v465z" />
<glyph unicode="&#xf001;" d="M563 557q-10 -2 -15 -2q-24 0 -39.5 17.5t-15.5 41.5q0 15 6.5 26.5t22.5 19.5q7 2 16.5 5t17.5 1q23 -3 36 -19t13 -36q0 -42 -42 -54zM482 398h-128v-396h-83v396h-92v63h94v209q10 55 46.5 87.5t91.5 32.5q11 0 23.5 -1.5t22 -3.5t25.5 -8v-78q-26 17 -56 17 q-34 0 -56 -23q-4 -6 -8.5 -13.5t-5.5 -13.5v-205h126v-63zM594 -4h-83v463h83v-463z" />
<glyph unicode="&#xf002;" d="M523 396h-128v-396h-83v396h-92v63h94v209q10 55 46.5 87.5t91.5 32.5q11 0 23.5 -1.5t22 -3.5t25.5 -8v-78q-26 17 -56 17q-34 0 -56 -23q-4 -6 -8.5 -13.5t-5.5 -13.5v-205h126v-63zM634 -4h-83v781h83v-781z" />
</font>
</defs>
</svg>
